<?xml version="1.0" encoding="UTF-8"?>
<svg width="80" height="80" viewBox="0 0 80 80" fill="none" xmlns="http://www.w3.org/2000/svg">
  <rect width="80" height="80" rx="16" fill="#FEF2F2"/>
  <path d="M25 30H35C36.105 30 37 30.895 37 32V48C37 49.105 36.105 50 35 50H25C23.895 50 23 49.105 23 48V32C23 30.895 23.895 30 25 30Z" fill="#DC2626" fill-opacity="0.2"/>
  <path d="M45 30H55C56.105 30 57 30.895 57 32V48C57 49.105 56.105 50 55 50H45C43.895 50 43 49.105 43 48V32C43 30.895 43.895 30 45 30Z" fill="#DC2626" fill-opacity="0.2"/>
  <path d="M37 36H43" stroke="#DC2626" stroke-width="4" stroke-linecap="round"/>
  <path d="M37 44H43" stroke="#DC2626" stroke-width="4" stroke-linecap="round"/>
  <path d="M30 40C31.1046 40 32 39.1046 32 38C32 36.8954 31.1046 36 30 36C28.8954 36 28 36.8954 28 38C28 39.1046 28.8954 40 30 40Z" fill="#DC2626"/>
  <path d="M30 44C31.1046 44 32 43.1046 32 42C32 40.8954 31.1046 40 30 40C28.8954 40 28 40.8954 28 42C28 43.1046 28.8954 44 30 44Z" fill="#DC2626"/>
  <path d="M50 40C51.1046 40 52 39.1046 52 38C52 36.8954 51.1046 36 50 36C48.8954 36 48 36.8954 48 38C48 39.1046 48.8954 40 50 40Z" fill="#DC2626"/>
  <path d="M50 44C51.1046 44 52 43.1046 52 42C52 40.8954 51.1046 40 50 40C48.8954 40 48 40.8954 48 42C48 43.1046 48.8954 44 50 44Z" fill="#DC2626"/>
</svg> 