<svg width="256" height="256" viewBox="0 0 256 256" fill="none" xmlns="http://www.w3.org/2000/svg">
<g clip-path="url(#clip0_32_262)">
<rect width="256" height="256" fill="white"/>
<path d="M55.1298 251.195C53.127 244.799 51.8378 238.282 52.1132 231.55C52.3291 226.261 53.1165 220.828 52.2317 215.572C50.5448 205.549 41.885 199.24 39.6798 189.761C37.4611 180.225 43.7355 171.914 43.4994 162.602C43.3497 156.694 40.7543 151.247 38.6179 145.85C33.4032 132.68 31.6669 119.007 38.407 106.069C40.6974 101.672 43.6457 97.4968 45.2901 92.8043C46.7252 88.7094 46.947 84.1937 47.6087 79.9292C48.0903 76.8229 48.8642 73.7559 49.6258 70.7087C56.7817 42.0696 72.589 15.9472 102.097 6.71149C121.523 0.631465 144.613 1.89057 162.714 11.4581C185.793 23.6568 199.255 47.6916 206.677 71.8952C212.08 89.5127 216.228 111.627 214.946 130.116C214.582 135.372 211.274 139.985 211.372 145.251C211.531 153.891 215.855 161.778 215.4 170.634C215.065 177.162 210.386 182.643 210.64 189.198C210.943 197.035 216.602 203.583 217.935 211.263C219.561 220.63 215.87 225.656 215.871 233.635C215.871 239.727 220.522 244.888 220.953 251.002C221.555 259.547 216.234 266.103 214.922 274.183C213.689 281.778 216.231 288.184 212.28 295.547C211.072 297.799 209.351 299.98 207.439 301.674C196.391 310.864 187.641 311.941 173.889 312.332C171.167 312.213 168.502 311.452 165.916 310.654C164.051 323.127 161.68 335.593 159.285 347.977C150.919 347.596 142.398 347.901 134.013 347.9C121.051 347.842 108.089 347.875 95.1278 348C91.7004 328.525 88.9065 308.706 83.7239 289.608C82.8952 295.183 79.4319 300.234 78.0394 305.807C68.5712 301.494 58.0009 298.531 48.17 295.086C48.5821 292.757 49.0459 290.437 49.5621 288.129C46.5565 283.977 44.3896 280.001 44.1704 274.748C43.7887 265.611 49.2762 257.658 55.1298 251.195Z" fill="#8E6020"/>
<path d="M102.246 64C111.935 72.5079 121.639 79.3364 134.022 83.4354C142.484 86.2367 151.231 87.0291 159.82 89.1699C163.83 90.1695 168.367 91.7038 171.695 94.2081C182.161 102.084 185.165 119.613 185.927 131.832C186.937 148.051 177.367 172.091 166.651 184.067C164.699 186.248 162.372 188.063 160.177 189.987C154.115 193.77 148.124 196.793 141.38 199.207C131.858 201.799 123.004 201.378 113.463 199.238C87.011 189.232 72.9724 171.652 60.7571 146.919C56.1538 135.035 52.5796 123.753 51 111.052C73.8262 98.2691 72.9631 70.214 102.246 64Z" fill="#F1D0B6"/>
<path d="M87.7328 120.292C92.5497 119.039 97.4692 121.933 98.7125 126.752C99.9559 131.572 97.0506 136.485 92.2286 137.717C87.4215 138.946 82.527 136.052 81.2875 131.248C80.0479 126.444 82.9316 121.543 87.7328 120.292Z" fill="#2D7186"/>
<path d="M91.912 125.327C93.0482 124.831 94.4087 124.904 95.464 125.517C96.5194 126.13 97.1022 127.186 96.9852 128.275C96.8686 129.363 96.0704 130.31 94.9023 130.748C93.1682 131.398 91.1455 130.749 90.3365 129.282C89.5274 127.815 90.2258 126.063 91.912 125.327Z" fill="#F8F8F7"/>
<path d="M162.384 120.286C166.942 119.045 171.584 121.963 172.738 126.793C173.893 131.624 171.119 136.529 166.552 137.732C162.01 138.928 157.409 136.011 156.261 131.207C155.114 126.402 157.851 121.52 162.384 120.286Z" fill="#2D7186"/>
<path d="M166.693 125.3C167.673 124.825 168.833 124.919 169.724 125.545C170.615 126.171 171.097 127.23 170.984 128.313C170.87 129.395 170.179 130.331 169.177 130.759C167.679 131.398 165.945 130.725 165.27 129.242C164.595 127.76 165.227 126.01 166.693 125.3Z" fill="#F8F8F7"/>
<path d="M87.6875 102.019C90.6586 101.912 93.9668 102.258 96.8568 103.015C98.7968 103.522 101.221 104.385 102.274 106.362C102.895 107.528 103.218 109.583 102.834 110.871C100.581 111.487 95.5266 109.723 93.0578 109.265C89.1863 108.864 79.7576 110.44 76.9239 108.337C76.1523 107.764 76.1515 107.634 76 106.708C76.1391 106.342 76.2467 106.08 76.4746 105.767C79.1443 102.093 83.7789 102.274 87.6875 102.019Z" fill="#8A6B4F"/>
<path d="M164.617 102C167.507 102.055 170.626 102.066 173.417 102.97C175.006 103.486 176.16 104.148 176.955 105.781C177.042 107.128 177.056 107.52 176.478 108.774C174.202 110.597 165.612 108.888 162.433 109.109C159.92 109.327 157.541 109.961 155.084 110.541C153.848 110.834 152.147 111.376 151.044 110.602C151.036 110.512 151.027 110.423 151.021 110.333C150.902 108.629 151.287 106.899 152.34 105.594C155.038 102.25 160.847 102.267 164.617 102Z" fill="#8A6B4F"/>
<path d="M113 168.232C115.101 169.167 117.276 170.061 119.502 170.689C127.351 172.907 133.95 171.697 141 168C140.44 169.949 139.82 171.656 138.836 173.461C136.539 175.936 133.886 177.718 130.509 178.559C126.797 179.483 122.609 178.944 119.317 177.041C115.695 174.946 114.021 172.064 113 168.232Z" fill="#CE6837"/>
<path d="M135 151L134.844 151.775C133.26 153.642 129.907 157.946 127.452 157.999C125.23 158.048 123.223 155.448 121.699 153.924L119 151.276C124.903 152.973 129.226 153.678 135 151Z" fill="#EFAB7A"/>
<path d="M141.231 199.227C147.979 196.812 153.974 193.786 160.041 190C159.83 192.549 157.151 195.76 156.033 198.158C152.793 205.114 151.851 212.243 153.768 219.697C154.385 222.098 155.489 224.719 155.697 227.18C157.312 229.63 159.679 234.91 159.501 237.876C160.887 240.18 161.366 243.639 160.717 246.236C159.661 250.458 156.482 253.708 154.808 257.655C150.553 267.689 156.531 273.927 158.191 283.097C156.686 289.486 151.751 296.25 155.684 302.678C157.991 306.447 162.088 308.873 166 310.654C164.131 323.127 161.756 335.593 159.356 347.977C150.974 347.596 142.436 347.901 134.035 347.9C121.049 347.842 108.061 347.875 95.0748 348C91.6408 328.525 88.8414 308.706 83.6488 289.609C82.8185 295.183 79.3486 300.234 77.9533 305.807C68.4668 301.495 57.8762 298.531 48.0263 295.086C48.4391 292.758 48.9039 290.438 49.4211 288.13C46.4096 283.977 44.2386 280.001 44.0188 274.749C43.6364 265.611 49.1346 257.659 54.9995 251.196C63.5175 242.936 72.8697 236.366 83.7992 231.665C85.977 230.729 91.4929 228.26 93.7142 229.146L94.2529 228.53C100.401 226.474 106.904 226.246 113.337 226.138L113.336 200.871L113.293 199.258C122.841 201.4 131.702 201.822 141.231 199.227Z" fill="#1D99A8"/>
<path d="M140.566 199.226C147.179 196.811 153.055 193.785 159 190C158.793 192.549 156.168 195.759 155.072 198.157C151.896 205.113 150.974 212.24 152.852 219.694C153.457 222.094 154.539 224.715 154.743 227.176C156.325 229.625 158.645 234.905 158.47 237.87C157.767 241.705 156.698 245.367 155.145 248.938C149.491 261.941 139.4 268.067 126.883 273C120.395 270.599 114.007 267.589 108.742 262.961C99.0825 254.468 94.9507 241.802 94 229.141L94.528 228.525C100.553 226.47 106.926 226.241 113.23 226.134L113.229 200.87L113.187 199.257C122.544 201.399 131.227 201.821 140.566 199.226Z" fill="#EDBE99"/>
<path d="M141 199.182C147.457 196.779 153.194 193.768 159 190C158.798 192.537 156.234 195.732 155.165 198.119C152.064 205.041 151.163 212.135 152.997 219.553C153.587 221.942 154.644 224.551 154.843 227C150.243 226.392 145.679 225.998 141.04 226.002L141.033 219.013L141 199.182Z" fill="#8A6B4F"/>
<path d="M113 199.031C122.558 201.181 131.427 201.605 140.965 199L141 219C135.058 215.362 117.797 202.106 113.043 200.65L113 199.031Z" fill="#EFAB7A"/>
</g>
<defs>
<clipPath id="clip0_32_262">
<rect width="256" height="256" fill="white"/>
</clipPath>
</defs>
</svg>
