<svg width="512" height="512" viewBox="0 0 512 512" fill="none" xmlns="http://www.w3.org/2000/svg">
<g clip-path="url(#clip0_6_59)">
<path d="M178.682 339.37C178.404 339.093 178.139 338.803 177.929 338.468C171.22 327.818 168.035 315.697 164.348 303.794C162.445 297.647 160.355 291.559 158.845 285.301C157.781 280.894 156.966 276.44 155.966 272.018C155.159 268.455 154.098 264.847 153.579 261.232C152.826 255.979 152.694 250.604 152.219 245.321C151.308 235.205 150.134 225.112 148.698 215.056C146.137 197.8 141.749 181.023 137.943 164.029C136.963 159.654 136.428 155.193 135.494 150.808C134.832 147.7 134.097 144.525 133.065 141.517C129.287 130.5 120.665 124.264 125.151 105.569C125.908 102.413 127.435 99.5364 130.294 97.8324C133.038 96.197 136.373 96.1725 139.391 96.9589C145.571 98.5696 150.715 104.738 154.428 109.671C157.891 114.274 161.471 119.079 164.017 124.264C172.1 140.729 171.75 164.176 174.3 182.367C175.118 188.197 176.24 195.242 179.347 200.347C180.191 201.733 181.347 203.003 183.007 203.333C184.495 203.628 185.924 203.066 187.129 202.224C191.093 199.45 191.25 193.323 191.168 188.926C191.032 181.573 189.441 174.279 188.043 167.082C186.859 161.193 185.805 155.278 184.883 149.342C183.939 143.4 183.031 137.432 182.476 131.439C181.108 116.664 181.017 101.762 180.672 86.9397C180.447 77.2723 179.463 67.0626 181.273 57.5184C182.494 51.0724 185.117 44.1503 190.759 40.3573C194.768 37.662 199.517 36.8131 204.245 37.7889C209.384 38.8494 213.288 42.8822 214.996 47.7449C217.193 54.0001 216.476 61.0878 216.62 67.6177C216.768 73.0694 216.959 78.5199 217.195 83.9687C217.501 90.4547 217.786 96.9584 218.459 103.418C219.572 114.112 221.208 124.696 221.79 135.445C222.091 141.009 222.004 146.701 221.796 152.27C221.617 157.074 221.243 161.79 221.72 166.594C222.101 170.441 222.73 175.153 224.932 178.406C225.635 179.444 226.735 180.685 228.035 180.868C228.531 180.938 228.982 180.809 229.37 180.491C230.46 179.598 230.936 177.726 231.084 176.368C231.442 173.069 231.22 169.517 231.265 166.188C231.325 158.817 231.428 151.446 231.573 144.077C232.271 116.901 232.544 89.7165 232.394 62.5322C232.354 53.9071 231.493 45.0716 232.052 36.4874C232.464 30.1601 233.953 23.4886 238.956 19.157C242.266 16.2915 247.685 15.3926 251.93 15.7259C259.309 16.3054 264.364 20.6219 267.046 27.3828C267.876 29.4941 268.421 31.7068 268.666 33.962C269.062 37.3352 268.96 40.8409 269.061 44.2369C269.281 50.7749 269.46 57.314 269.6 63.854C270.105 85.3436 270.597 106.787 269.61 128.273C269.086 139.705 267.245 152.446 267.595 163.719C267.677 166.377 267.866 170.226 269.803 172.29C270.442 172.97 271.395 173.348 272.325 173.337C273.699 173.321 274.729 171.971 275.313 170.859C277.352 166.977 277.359 160.836 278.002 156.495C278.985 150.129 279.913 143.756 280.788 137.375C283.389 118.66 287.045 100.161 290.266 81.5517L293.574 61.9455C294.321 57.4894 294.942 52.8976 296.186 48.5509C297.007 45.6824 298.257 43.0538 300.31 40.8602C303.568 37.3815 308.292 35.6866 312.987 35.5624C317.471 35.444 321.896 36.7224 325.165 39.9016C327.707 42.3768 329.079 45.5894 329.5 49.0865C330.039 53.5456 329.477 58.0959 329.044 62.5393C328.442 68.7195 327.636 74.8888 327.09 81.0717C325.493 99.1189 325.717 117.257 323.886 135.288C323.43 140.264 322.745 145.215 321.833 150.128C320.702 156.21 319.284 162.226 318.622 168.388C318.153 172.744 318.241 177.226 318.299 181.606C318.377 187.454 318.836 193.314 319.178 199.153C319.977 212.772 319.178 213.03 325.395 227.994C327.03 230.607 326.427 229.542 331.843 231.09C335.97 222.576 336.116 222.995 335.97 213.804C335.864 207.178 336.099 199.057 337.829 192.546C339.124 187.671 343.609 180.641 346.286 176.368C349.664 170.973 351.934 168.356 356.186 163.658C358.944 160.611 361.651 157.414 364.712 154.665C366.507 153.036 368.475 151.604 370.578 150.395C376.209 147.15 383.239 143.144 389.949 145.023C392.649 145.779 394.624 147.627 395.969 150.048C397.88 153.483 398.301 157.423 398.43 161.287C398.634 167.464 397.936 173.783 395.541 179.526C394.11 182.961 392.102 186.096 390.365 189.375C388.209 193.446 386.599 198.027 385.682 202.539C383.171 214.908 384.833 226.901 385.947 239.294C386.881 249.702 387.365 262.005 385.362 272.328C384.035 279.156 381.481 285.376 378.99 291.837C376.799 297.518 374.733 303.26 372.625 308.974C371.127 313.028 369.449 317.181 368.258 321.328L368.202 321.522C366.943 370.035 329.654 409.96 281.355 414.51C233.055 419.058 188.971 386.798 178.682 339.37Z" fill="#7C65DA"/>
<path d="M178.566 339.493C170.719 303.322 184.382 265.865 213.671 243.247C242.959 220.629 282.645 216.89 315.639 233.642C348.634 250.395 369.046 284.643 368.086 321.644C366.827 370.158 329.537 410.083 281.239 414.633C232.939 419.181 188.855 386.92 178.566 339.493Z" fill="black"/>
<path d="M268.083 229.825C317.382 227.525 359.218 265.62 361.55 314.935C363.88 364.247 325.825 406.122 276.53 408.488C227.188 410.854 185.28 372.743 182.946 323.383C180.613 274.025 218.739 232.128 268.083 229.825Z" fill="white"/>
<path d="M252.486 253.993C277.126 251.977 298.725 270.342 300.707 294.993C302.689 319.641 284.301 341.224 259.656 343.174C235.058 345.121 213.532 326.769 211.554 302.163C209.576 277.56 227.893 256.003 252.486 253.993Z" fill="black"/>
<path d="M253.767 260.374C274.813 259.074 292.939 275.063 294.284 296.114C295.63 317.165 279.687 335.333 258.647 336.726C237.539 338.122 219.307 322.113 217.957 300.997C216.608 279.878 232.653 261.677 253.767 260.374Z" fill="url(#paint0_linear_6_59)"/>
<path d="M252.745 276.379C254.74 276.22 256.713 276.114 258.713 276.285C264.373 276.774 269.766 279.881 273.366 284.234C277.174 288.84 279.003 294.769 278.45 300.72C277.795 306.807 274.758 312.388 270.003 316.24C264.626 320.531 258.599 321.342 251.955 320.594C251.734 320.546 251.513 320.498 251.293 320.445C245.55 319.115 240.486 315.782 237.337 310.745C236.362 309.183 235.442 307.066 234.214 305.721C232.181 303.491 229.424 302.675 227.723 299.901C225.767 296.714 225.271 292.365 226.147 288.762C227.028 285.033 229.39 281.821 232.688 279.871C236.797 277.442 240.976 277.52 245.459 278.671C247.856 277.706 250.19 276.819 252.745 276.379Z" fill="url(#paint1_linear_6_59)"/>
<path d="M238.263 284.507C241.066 283.821 244.021 284.696 245.998 286.799C247.974 288.901 248.667 291.904 247.81 294.66C246.953 297.417 244.679 299.498 241.859 300.108C237.581 301.032 233.353 298.349 232.37 294.081C231.386 289.815 234.012 285.55 238.263 284.507Z" fill="white"/>
<path d="M46.9297 436.902H35.6602V431.473H64.3906V436.902H53.1211V462H46.9297V436.902ZM70.2891 429.617H76.0703V440.711C77.2812 440.047 78.6289 439.52 80.1133 439.129C81.6107 438.738 83.1797 438.543 84.8203 438.543C86.7214 438.543 88.4271 438.823 89.9375 439.383C91.4609 439.943 92.75 440.75 93.8047 441.805C94.8594 442.846 95.6667 444.116 96.2266 445.613C96.7995 447.111 97.0859 448.797 97.0859 450.672V462H91.3242V450.906C91.3242 449.812 91.1484 448.816 90.7969 447.918C90.4453 447.007 89.931 446.225 89.2539 445.574C88.5768 444.923 87.75 444.422 86.7734 444.07C85.8099 443.706 84.7161 443.523 83.4922 443.523C82.0208 443.523 80.6536 443.758 79.3906 444.227C78.1276 444.695 77.0208 445.288 76.0703 446.004V462H70.2891V429.617ZM102.477 450.398C102.477 448.836 102.796 447.345 103.434 445.926C104.072 444.493 104.99 443.23 106.188 442.137C107.385 441.043 108.85 440.171 110.582 439.52C112.327 438.868 114.306 438.543 116.52 438.543C118.72 438.543 120.699 438.875 122.457 439.539C124.228 440.19 125.725 441.089 126.949 442.234C128.186 443.38 129.13 444.728 129.781 446.277C130.445 447.827 130.777 449.487 130.777 451.258C130.777 451.479 130.771 451.72 130.758 451.98C130.758 452.228 130.745 452.456 130.719 452.664H108.922C109.169 453.354 109.566 453.986 110.113 454.559C110.673 455.132 111.37 455.626 112.203 456.043C113.036 456.46 114 456.785 115.094 457.02C116.188 457.241 117.398 457.352 118.727 457.352C120.055 457.352 121.376 457.215 122.691 456.941C124.007 456.655 125.263 456.297 126.461 455.867L128.414 460.281C127.659 460.633 126.891 460.945 126.109 461.219C125.341 461.479 124.534 461.701 123.688 461.883C122.854 462.052 121.975 462.182 121.051 462.273C120.139 462.365 119.176 462.41 118.16 462.41C115.569 462.41 113.297 462.098 111.344 461.473C109.391 460.848 107.757 459.995 106.441 458.914C105.126 457.833 104.137 456.564 103.473 455.105C102.809 453.647 102.477 452.078 102.477 450.398ZM124.645 448.152C124.436 447.514 124.111 446.922 123.668 446.375C123.238 445.815 122.698 445.333 122.047 444.93C121.396 444.513 120.641 444.188 119.781 443.953C118.922 443.719 117.978 443.602 116.949 443.602C115.855 443.602 114.859 443.725 113.961 443.973C113.062 444.22 112.275 444.552 111.598 444.969C110.921 445.385 110.354 445.867 109.898 446.414C109.456 446.961 109.13 447.54 108.922 448.152H124.645ZM151.012 431.473H167.105C169.449 431.473 171.48 431.727 173.199 432.234C174.918 432.742 176.344 433.478 177.477 434.441C178.609 435.392 179.449 436.557 179.996 437.938C180.556 439.318 180.836 440.874 180.836 442.605C180.836 444.233 180.562 445.737 180.016 447.117C179.469 448.497 178.629 449.695 177.496 450.711C176.376 451.714 174.957 452.501 173.238 453.074C171.52 453.634 169.488 453.914 167.145 453.914L157.203 453.895V462H151.012V431.473ZM167.262 448.543C168.434 448.543 169.456 448.406 170.328 448.133C171.214 447.846 171.949 447.449 172.535 446.941C173.134 446.421 173.577 445.796 173.863 445.066C174.163 444.324 174.312 443.504 174.312 442.605C174.312 440.796 173.72 439.389 172.535 438.387C171.363 437.371 169.605 436.863 167.262 436.863H157.203V448.543H167.262ZM185.797 454.734C185.797 453.628 186.038 452.618 186.52 451.707C187.001 450.796 187.724 450.014 188.688 449.363C189.651 448.699 190.849 448.191 192.281 447.84C193.727 447.475 195.406 447.293 197.32 447.293C198.74 447.293 200.23 447.397 201.793 447.605C203.368 447.814 204.99 448.133 206.656 448.562C206.591 447.833 206.37 447.163 205.992 446.551C205.615 445.926 205.087 445.392 204.41 444.949C203.746 444.493 202.939 444.142 201.988 443.895C201.051 443.647 199.983 443.523 198.785 443.523C198.134 443.523 197.418 443.562 196.637 443.641C195.855 443.719 195.048 443.836 194.215 443.992C193.382 444.148 192.555 444.344 191.734 444.578C190.927 444.812 190.172 445.092 189.469 445.418L187.711 440.672C188.583 440.359 189.514 440.073 190.504 439.812C191.507 439.552 192.529 439.331 193.57 439.148C194.612 438.953 195.654 438.803 196.695 438.699C197.737 438.595 198.746 438.543 199.723 438.543C204.033 438.543 207.236 439.643 209.332 441.844C211.428 444.044 212.477 447.417 212.477 451.961V462H206.695V459.832C206.096 460.184 205.439 460.516 204.723 460.828C204.02 461.141 203.251 461.414 202.418 461.648C201.585 461.883 200.686 462.065 199.723 462.195C198.772 462.339 197.763 462.41 196.695 462.41C194.898 462.41 193.316 462.215 191.949 461.824C190.595 461.434 189.462 460.893 188.551 460.203C187.639 459.513 186.949 458.706 186.48 457.781C186.025 456.844 185.797 455.828 185.797 454.734ZM191.891 454.539C191.891 454.917 191.988 455.281 192.184 455.633C192.379 455.971 192.691 456.277 193.121 456.551C193.551 456.811 194.098 457.026 194.762 457.195C195.439 457.352 196.253 457.43 197.203 457.43C198.219 457.43 199.202 457.339 200.152 457.156C201.103 456.974 201.988 456.733 202.809 456.434C203.629 456.134 204.371 455.789 205.035 455.398C205.699 455.008 206.253 454.604 206.695 454.188V453.172C205.81 452.924 204.931 452.716 204.059 452.547C203.199 452.378 202.372 452.247 201.578 452.156C200.797 452.052 200.055 451.98 199.352 451.941C198.661 451.902 198.056 451.883 197.535 451.883C196.454 451.883 195.556 451.954 194.84 452.098C194.124 452.241 193.544 452.436 193.102 452.684C192.659 452.918 192.346 453.198 192.164 453.523C191.982 453.849 191.891 454.188 191.891 454.539ZM220.289 429.598H226.07V462H220.289V429.598ZM233.648 438.953H239.43V440.906C240.875 440.021 242.281 439.409 243.648 439.07C245.029 438.719 246.376 438.543 247.691 438.543C249.527 438.543 251.214 438.836 252.75 439.422C254.286 440.008 255.602 440.893 256.695 442.078C257.542 441.427 258.375 440.88 259.195 440.438C260.016 439.982 260.836 439.617 261.656 439.344C262.477 439.057 263.31 438.855 264.156 438.738C265.003 438.608 265.875 438.543 266.773 438.543C268.661 438.543 270.374 438.803 271.91 439.324C273.447 439.832 274.755 440.594 275.836 441.609C276.93 442.625 277.77 443.895 278.355 445.418C278.954 446.928 279.254 448.68 279.254 450.672V462H273.492V451.609C273.492 450.346 273.31 449.22 272.945 448.23C272.594 447.228 272.092 446.388 271.441 445.711C270.803 445.021 270.035 444.5 269.137 444.148C268.251 443.784 267.275 443.602 266.207 443.602C265.621 443.602 265.022 443.66 264.41 443.777C263.798 443.882 263.199 444.051 262.613 444.285C262.04 444.52 261.5 444.819 260.992 445.184C260.484 445.535 260.042 445.952 259.664 446.434V462H253.902V451.609C253.902 450.346 253.72 449.22 253.355 448.23C253.004 447.228 252.503 446.388 251.852 445.711C251.214 445.021 250.439 444.5 249.527 444.148C248.629 443.784 247.639 443.602 246.559 443.602C245.895 443.602 245.224 443.673 244.547 443.816C243.883 443.947 243.238 444.135 242.613 444.383C242.001 444.63 241.422 444.93 240.875 445.281C240.341 445.633 239.859 446.03 239.43 446.473V462H233.648V438.953ZM289.586 435.809C289.013 435.809 288.492 435.73 288.023 435.574C287.568 435.405 287.177 435.184 286.852 434.91C286.526 434.624 286.272 434.298 286.09 433.934C285.921 433.556 285.836 433.159 285.836 432.742C285.836 432.312 285.921 431.915 286.09 431.551C286.272 431.173 286.526 430.848 286.852 430.574C287.177 430.301 287.568 430.086 288.023 429.93C288.492 429.76 289.013 429.676 289.586 429.676C290.172 429.676 290.693 429.76 291.148 429.93C291.617 430.086 292.014 430.301 292.34 430.574C292.665 430.848 292.913 431.173 293.082 431.551C293.264 431.915 293.355 432.312 293.355 432.742C293.355 433.159 293.264 433.556 293.082 433.934C292.913 434.298 292.665 434.624 292.34 434.91C292.014 435.184 291.617 435.405 291.148 435.574C290.693 435.73 290.172 435.809 289.586 435.809ZM286.695 438.953H292.477V462H286.695V438.953ZM300.816 454.93C302.379 455.867 304.098 456.557 305.973 457C307.848 457.443 309.768 457.664 311.734 457.664C313.062 457.664 314.169 457.573 315.055 457.391C315.94 457.208 316.65 456.974 317.184 456.688C317.717 456.401 318.095 456.076 318.316 455.711C318.538 455.346 318.648 454.975 318.648 454.598C318.648 454.051 318.408 453.582 317.926 453.191C317.457 452.801 316.676 452.605 315.582 452.605C315.074 452.605 314.527 452.638 313.941 452.703C313.355 452.768 312.737 452.84 312.086 452.918C311.448 452.983 310.777 453.048 310.074 453.113C309.384 453.178 308.681 453.211 307.965 453.211C306.402 453.211 305.068 453.042 303.961 452.703C302.867 452.365 301.975 451.902 301.285 451.316C300.595 450.73 300.094 450.04 299.781 449.246C299.469 448.439 299.312 447.573 299.312 446.648C299.312 445.477 299.586 444.396 300.133 443.406C300.68 442.417 301.461 441.564 302.477 440.848C303.492 440.118 304.716 439.552 306.148 439.148C307.594 438.745 309.202 438.543 310.973 438.543C311.897 438.543 312.861 438.602 313.863 438.719C314.879 438.823 315.875 438.966 316.852 439.148C317.828 439.331 318.766 439.546 319.664 439.793C320.562 440.027 321.357 440.281 322.047 440.555L320.23 445.047C318.759 444.5 317.288 444.07 315.816 443.758C314.358 443.432 312.854 443.27 311.305 443.27C310.224 443.27 309.306 443.354 308.551 443.523C307.809 443.68 307.203 443.895 306.734 444.168C306.266 444.428 305.921 444.734 305.699 445.086C305.491 445.424 305.387 445.783 305.387 446.16C305.387 446.434 305.439 446.681 305.543 446.902C305.66 447.124 305.842 447.319 306.09 447.488C306.35 447.645 306.682 447.768 307.086 447.859C307.503 447.938 308.01 447.977 308.609 447.977C309.156 447.977 309.736 447.944 310.348 447.879C310.96 447.814 311.598 447.749 312.262 447.684C312.926 447.605 313.609 447.534 314.312 447.469C315.029 447.404 315.758 447.371 316.5 447.371C317.88 447.371 319.085 447.534 320.113 447.859C321.155 448.185 322.014 448.641 322.691 449.227C323.368 449.812 323.876 450.503 324.215 451.297C324.553 452.091 324.723 452.957 324.723 453.895C324.723 455.105 324.443 456.232 323.883 457.273C323.323 458.315 322.49 459.22 321.383 459.988C320.276 460.743 318.896 461.336 317.242 461.766C315.602 462.195 313.701 462.41 311.539 462.41C310.211 462.41 308.928 462.326 307.691 462.156C306.454 462 305.276 461.785 304.156 461.512C303.036 461.225 301.982 460.893 300.992 460.516C300.016 460.138 299.124 459.734 298.316 459.305L300.816 454.93ZM333.414 443.289H327.848V438.953H333.414V431.785H339.195V438.953H344.762V443.289H339.195V462H333.414V443.289ZM349.898 438.953H355.68V442.273C356.956 441.323 358.303 440.503 359.723 439.812C361.142 439.122 362.555 438.595 363.961 438.23L365.66 443.523C363.434 443.745 361.474 444.246 359.781 445.027C358.102 445.796 356.734 446.883 355.68 448.289V462H349.898V438.953ZM372.73 464.891C373.329 465.281 373.98 465.626 374.684 465.926C375.387 466.225 376.116 466.473 376.871 466.668C377.639 466.863 378.421 467.007 379.215 467.098C380.009 467.202 380.797 467.254 381.578 467.254C384.234 467.254 386.279 466.681 387.711 465.535C389.156 464.402 389.879 462.697 389.879 460.418V459.637C389.371 459.988 388.798 460.314 388.16 460.613C387.535 460.9 386.858 461.147 386.129 461.355C385.413 461.564 384.651 461.727 383.844 461.844C383.049 461.948 382.242 462 381.422 462C379.664 462 378.089 461.746 376.695 461.238C375.315 460.717 374.143 459.962 373.18 458.973C372.229 457.97 371.5 456.74 370.992 455.281C370.484 453.823 370.23 452.156 370.23 450.281V438.953H375.992V448.68C375.992 451.466 376.52 453.523 377.574 454.852C378.642 456.167 380.322 456.824 382.613 456.824C384.228 456.824 385.654 456.544 386.891 455.984C388.141 455.411 389.137 454.682 389.879 453.797V438.953H395.66V459.363C395.66 461.564 395.348 463.471 394.723 465.086C394.098 466.714 393.186 468.061 391.988 469.129C390.803 470.197 389.345 470.991 387.613 471.512C385.882 472.046 383.915 472.312 381.715 472.312C379.566 472.312 377.561 472.085 375.699 471.629C373.837 471.173 372.132 470.555 370.582 469.773L372.73 464.891ZM417.145 431.473H423.336V456.57H441.09V462H417.145V431.473ZM449.43 435.809C448.857 435.809 448.336 435.73 447.867 435.574C447.411 435.405 447.021 435.184 446.695 434.91C446.37 434.624 446.116 434.298 445.934 433.934C445.764 433.556 445.68 433.159 445.68 432.742C445.68 432.312 445.764 431.915 445.934 431.551C446.116 431.173 446.37 430.848 446.695 430.574C447.021 430.301 447.411 430.086 447.867 429.93C448.336 429.76 448.857 429.676 449.43 429.676C450.016 429.676 450.536 429.76 450.992 429.93C451.461 430.086 451.858 430.301 452.184 430.574C452.509 430.848 452.757 431.173 452.926 431.551C453.108 431.915 453.199 432.312 453.199 432.742C453.199 433.159 453.108 433.556 452.926 433.934C452.757 434.298 452.509 434.624 452.184 434.91C451.858 435.184 451.461 435.405 450.992 435.574C450.536 435.73 450.016 435.809 449.43 435.809ZM446.539 438.953H452.32V462H446.539V438.953ZM462.262 443.289H458.316V438.953H462.262C462.262 437.391 462.483 436.004 462.926 434.793C463.368 433.569 464.007 432.54 464.84 431.707C465.686 430.861 466.708 430.216 467.906 429.773C469.117 429.331 470.478 429.109 471.988 429.109C473.043 429.109 474.078 429.214 475.094 429.422C476.109 429.617 477.008 429.904 477.789 430.281L475.738 435.145C475.426 434.962 474.983 434.793 474.41 434.637C473.85 434.48 473.232 434.402 472.555 434.402C471.227 434.402 470.152 434.78 469.332 435.535C468.525 436.277 468.095 437.417 468.043 438.953H475.328V443.289H468.043V462H462.262V443.289ZM478.688 450.398C478.688 448.836 479.007 447.345 479.645 445.926C480.283 444.493 481.201 443.23 482.398 442.137C483.596 441.043 485.061 440.171 486.793 439.52C488.538 438.868 490.517 438.543 492.73 438.543C494.931 438.543 496.91 438.875 498.668 439.539C500.439 440.19 501.936 441.089 503.16 442.234C504.397 443.38 505.341 444.728 505.992 446.277C506.656 447.827 506.988 449.487 506.988 451.258C506.988 451.479 506.982 451.72 506.969 451.98C506.969 452.228 506.956 452.456 506.93 452.664H485.133C485.38 453.354 485.777 453.986 486.324 454.559C486.884 455.132 487.581 455.626 488.414 456.043C489.247 456.46 490.211 456.785 491.305 457.02C492.398 457.241 493.609 457.352 494.938 457.352C496.266 457.352 497.587 457.215 498.902 456.941C500.217 456.655 501.474 456.297 502.672 455.867L504.625 460.281C503.87 460.633 503.102 460.945 502.32 461.219C501.552 461.479 500.745 461.701 499.898 461.883C499.065 462.052 498.186 462.182 497.262 462.273C496.35 462.365 495.387 462.41 494.371 462.41C491.78 462.41 489.508 462.098 487.555 461.473C485.602 460.848 483.967 459.995 482.652 458.914C481.337 457.833 480.348 456.564 479.684 455.105C479.02 453.647 478.688 452.078 478.688 450.398ZM500.855 448.152C500.647 447.514 500.322 446.922 499.879 446.375C499.449 445.815 498.909 445.333 498.258 444.93C497.607 444.513 496.852 444.188 495.992 443.953C495.133 443.719 494.189 443.602 493.16 443.602C492.066 443.602 491.07 443.725 490.172 443.973C489.273 444.22 488.486 444.552 487.809 444.969C487.132 445.385 486.565 445.867 486.109 446.414C485.667 446.961 485.341 447.54 485.133 448.152H500.855Z" fill="black"/>
</g>
<defs>
<linearGradient id="paint0_linear_6_59" x1="256.121" y1="260.301" x2="256.121" y2="336.811" gradientUnits="userSpaceOnUse">
<stop stop-color="#60FFCD"/>
<stop offset="1" stop-color="#0090CB"/>
</linearGradient>
<linearGradient id="paint1_linear_6_59" x1="252.139" y1="276.198" x2="252.139" y2="320.841" gradientUnits="userSpaceOnUse">
<stop/>
<stop offset="0.490385" stop-color="#323232"/>
<stop offset="1"/>
</linearGradient>
<clipPath id="clip0_6_59">
<rect width="512" height="512" fill="white"/>
</clipPath>
</defs>
</svg>
