<svg width="256" height="256" viewBox="0 0 256 256" fill="none" xmlns="http://www.w3.org/2000/svg">
<g clip-path="url(#clip0_32_67)">
<rect width="256" height="256" fill="white"/>
<path d="M32 7H118.516H136.232C141.336 7.96413 146.55 8.16288 151.652 9.14577C168.032 12.3014 183.37 20.1633 192.97 34.1612C207.33 55.1004 206.665 84.9117 202.083 108.904C201.44 112.271 200.672 115.611 200.015 118.975C199.194 122.576 198.506 126.463 197.077 129.87C196.446 137.563 192.818 144.677 190.498 151.93C188.38 155.89 186.418 159.933 184.028 163.74C174.656 178.669 161.459 189.783 144.494 194.957C143.042 195.393 141.58 195.796 140.11 196.166C131.373 197.522 123.379 197.275 114.66 196.026L114.831 197.878L114.829 211.184C110.877 214.959 106.585 216.582 101.252 217.462C82.7581 222.077 68.5597 229.565 58.4456 246.36C51.4847 257.92 48.5352 270.649 46.7158 283.859C46.2629 287.146 45.5555 291.734 45.9956 295.045C45.6442 304.277 44.3865 313.542 43.4204 322.73C42.152 335.471 40.956 348.22 39.8325 360.976C38.726 373.873 37.7104 386.777 36.7856 399.69C36.2139 409.728 35.4792 419.759 34.582 429.774C34.0462 435.733 33.7911 442.279 32 448V7Z" fill="#EBBD9A"/>
<path d="M32 7H119C113.931 7.85288 108.772 8.17958 103.73 9.16386C87.6582 12.3017 72.6336 19.7545 62.9514 33.2339C48.6878 53.0913 48.52 81.1826 52.482 104.433C53.2801 109.117 54.1032 113.949 55.2997 118.544C56.1956 122.098 56.8505 126.893 58.4657 130.121C59.8289 138.923 62.9589 144.13 65.0176 151.827C74.0362 170.286 87.2972 186.764 107.442 193.723C109.96 194.593 112.536 195.386 115.123 196.026L115.295 197.878L115.293 211.184C111.319 214.959 107.003 216.582 101.64 217.462C83.0422 222.077 68.7643 229.565 58.5937 246.36C51.5937 257.92 48.6278 270.649 46.7982 283.859C46.3428 287.146 45.6314 291.734 46.074 295.045C45.7206 304.277 44.4558 313.542 43.4843 322.73C42.2089 335.471 41.0062 348.22 39.8763 360.976C38.7636 373.873 37.7423 386.777 36.8124 399.69C36.2375 409.728 35.4987 419.759 34.5965 429.775C34.0576 435.733 33.8011 442.279 32 448V7Z" fill="white"/>
<path d="M55.5116 119C56.3863 122.502 57.0258 127.228 58.6028 130.409C59.9338 139.082 62.9899 144.214 65 151.798C63.6012 152.346 61.7441 153.04 60.2348 152.998C58.9945 152.964 57.4266 152.422 56.5809 151.477C54.4073 149.05 49.7647 128.329 50.0093 124.878C50.2432 121.576 53.3626 120.926 55.3974 119.106C55.4361 119.071 55.4735 119.035 55.5116 119Z" fill="#EFAB7A"/>
<path d="M118.983 7H136.603C141.68 7.96319 146.865 8.16173 151.94 9.14366C168.232 12.2962 183.487 20.1504 193.035 34.1345C207.317 55.0531 206.656 84.8349 202.098 108.804C201.459 112.167 200.695 115.504 200.042 118.865C199.225 122.462 198.542 126.345 197.12 129.749C196.142 120.427 196.35 111.495 194.089 102.271C191.272 90.7765 185.612 81.6968 175.436 75.5321C175.196 81.7399 175.555 87.93 175.893 94.1267C163.104 89.9826 149.713 85.9484 140.006 76.1045C138.976 81.1141 120.074 83.4976 118.983 88.5C100.405 84.3292 93.0151 80.0373 80.1651 65.2695C63.1943 84.8616 63.9773 106.438 59.1113 130C57.5138 126.775 56.866 121.984 55.9799 118.434C54.7966 113.844 53.9824 109.016 53.1931 104.337C49.2744 81.1095 49.4404 53.0459 63.5479 33.208C73.1242 19.742 87.9843 12.2965 103.88 9.16173C108.867 8.17842 113.97 7.85204 118.983 7Z" fill="#554B3F"/>
<path d="M159.53 122.145C161.888 121.677 164.318 122.357 166.152 123.998C167.987 125.639 169.032 128.067 168.999 130.615C168.95 134.461 166.477 137.793 162.967 138.739C160.138 139.501 157.143 138.566 155.151 136.299C153.16 134.032 152.489 130.792 153.4 127.845C154.312 124.899 156.661 122.714 159.53 122.145Z" fill="#144EA4"/>
<path d="M161.488 125.341C162.927 124.641 164.774 125.053 165.602 126.257C166.431 127.462 165.922 128.999 164.47 129.679C163.034 130.352 161.216 129.934 160.397 128.743C159.579 127.552 160.065 126.034 161.488 125.341Z" fill="#F8F8F7"/>
<path d="M93.5488 122.142C97.7821 121.313 101.874 124.192 102.808 128.657C103.742 133.122 101.182 137.572 97.0168 138.725C94.1842 139.509 91.1747 138.587 89.1701 136.321C87.1657 134.055 86.4863 130.806 87.3989 127.851C88.3115 124.896 90.67 122.706 93.5488 122.142Z" fill="#144EA4"/>
<path d="M95.3114 125.301C96.1333 124.856 97.1343 124.908 97.9068 125.433C98.6792 125.959 99.0938 126.872 98.982 127.799C98.8701 128.727 98.2505 129.514 97.3754 129.841C96.1445 130.301 94.768 129.73 94.2246 128.534C93.6808 127.338 94.1558 125.926 95.3114 125.301Z" fill="#F8F8F7"/>
<path d="M91.2141 106.19C91.5954 106.139 91.9936 106.135 92.3792 106.116C96.0371 105.929 102.986 105.635 105.822 108.268C106.615 109.003 107.044 110.039 106.996 111.107C106.95 112.228 106.542 113.097 105.668 113.835C102.706 114.425 98.2431 113.27 95.2307 112.918C92.0053 112.839 81.5329 114.261 79.5296 113.416C78.8088 113.111 78.2371 112.541 78.0605 111.77C77.8621 110.905 78.1664 109.996 78.7576 109.343C81.2343 106.605 87.6632 106.519 91.2141 106.19Z" fill="#554B3F"/>
<path d="M157.808 106.154C162.565 105.865 167.886 105.851 172.485 107.294C174.772 108.011 176.864 109.159 178 111.393C177.964 112.073 178.019 112.309 177.483 112.791C175.36 114.696 170.974 113.684 168.49 113.377C164.258 112.828 152.639 114.787 150.422 113.625C149.753 113.274 149.299 112.673 149.117 111.943C148.784 110.605 149.201 109.404 149.89 108.267C152.025 106.594 155.216 106.477 157.808 106.154Z" fill="#554B3F"/>
<path d="M115 165.085C115.732 165.437 116.478 165.757 117.235 166.043C123.873 168.546 133.642 168.31 140 165C139.242 167.134 138.411 169.061 137.33 171.03C135.796 173.014 133.953 174.472 131.658 175.28C128.401 176.427 124.647 176.226 121.586 174.519C117.932 172.482 116.244 169.127 115 165.085Z" fill="#CE6837"/>
<path d="M121 150.14C126.492 151.123 130.52 151.152 136 150L134.064 152.85C133.151 153.861 132.163 154.9 130.927 155.453C129.311 156.176 127.312 156.183 125.69 155.468C123.587 154.539 121.864 152.31 121 150.14Z" fill="#EFAB7A"/>
<path d="M115.137 196C123.898 197.248 131.931 197.495 140.711 196.14L140.865 197.395C141.399 201.947 141.046 206.871 141.027 211.468C144.656 214.791 149.17 216.744 154.071 217.361C172.283 221.696 187.096 229.548 197.154 245.822C204.677 257.996 208.426 272.869 209.608 287.037C209.82 289.572 210.173 292.451 209.901 294.99C203.25 295.35 196.605 296.157 189.98 296.83C185.784 297.255 181.339 297.43 177.209 298.251C177.168 298.19 177.125 298.132 177.086 298.07C175.633 295.735 176.342 289.401 175.036 288.023C174.462 295.316 175.782 305.489 176.17 313.185C177.281 340.091 178.772 366.98 180.641 393.845C180.976 398.541 184.344 430.415 183.539 431.975C166.36 436.305 143.915 440.536 126.198 439.944C119.051 439.029 111.7 439.014 104.503 438.174C93.6945 436.912 83.1716 434.47 72.5796 432.059C71.6217 427.832 74.6378 405.027 75.0964 398.724C76.8498 374.527 78.2713 350.308 79.3604 326.073C79.9967 313.96 81.4815 299.395 81.0413 287.505C80.4826 290.333 80.6491 296.099 78.8385 298.26C74.5917 297.389 69.9919 297.263 65.6598 296.836C59.159 296.197 52.6597 295.378 46.1395 294.969C45.6972 291.659 46.4081 287.074 46.8631 283.788C48.6914 270.585 51.6551 257.862 58.6499 246.308C68.813 229.522 83.0803 222.038 101.664 217.425C107.023 216.546 111.336 214.923 115.307 211.15L115.309 197.851L115.137 196Z" fill="#15297A"/>
<path d="M115 196C123.463 197.266 131.224 197.515 139.706 196.142L139.855 197.414C139.684 202.741 140.673 209.493 139.056 214.534C137.825 216.949 136.523 218.899 134.517 220.71C132.127 227.025 129.385 233.459 127.648 240C124.966 234.906 123.513 228.691 121.386 223.265C119.584 218.43 116.523 217.437 115.164 211.36L115.166 197.876L115 196Z" fill="#EDBE99"/>
<path d="M115 196C123.463 197.297 131.224 197.554 139.706 196.146L139.855 197.45C139.684 202.911 140.673 209.832 139.056 215C133.101 210.683 120.938 200.635 115.166 197.924L115 196Z" fill="#EFAB7A"/>
<path d="M101 218.143C106.603 217.282 111.113 215.693 115.266 212C116.736 217.867 120.049 218.826 122 223.494C121.667 224.492 121.426 225.085 120.539 225.795C119.167 225.864 118.971 225.392 117.964 224.57C113.975 228.764 110.2 233.413 106.741 238C105.379 233.836 103.72 220.596 101 218.143Z" fill="#DBE2F2"/>
<path d="M140.605 197C141.146 201.731 140.788 206.848 140.769 211.624C144.45 215.079 149.028 217.108 154 217.749C151.864 220.619 149.663 234.855 149.102 239C144.465 232.977 139.967 226.606 135 220.877C137.106 219.021 138.473 217.022 139.766 214.547C141.464 209.38 140.425 202.46 140.605 197Z" fill="#DBE2F2"/>
<path d="M199.985 119C202.075 119.842 203.809 120.986 204.769 123.214C206.119 126.351 201.182 145.683 199.72 149.535C199.142 151.057 198.518 151.988 197.044 152.629C195.021 153.509 192.931 152.643 191 151.895C193.191 144.655 196.615 137.554 197.211 129.875C198.561 126.474 199.21 122.594 199.985 119Z" fill="#EFAB7A"/>
</g>
<defs>
<clipPath id="clip0_32_67">
<rect width="256" height="256" fill="white"/>
</clipPath>
</defs>
</svg>
