<svg viewBox="0 0 165.52 105.97" xmlns="http://www.w3.org/2000/svg"><path d="M150.7 0H14.82C6.64 0 0 6.64 0 14.82v76.33c0 8.18 6.64 14.82 14.82 14.82H150.7c8.18 0 14.82-6.64 14.82-14.82V14.82C165.52 6.64 158.88 0 150.7 0z" fill="#000"/><path d="M150.7 3.45c6.27 0 11.37 5.1 11.37 11.37v76.33c0 6.27-5.1 11.37-11.37 11.37H14.82c-6.27 0-11.37-5.1-11.37-11.37V14.82c0-6.27 5.1-11.37 11.37-11.37H150.7" fill="#fff"/><path d="M58.76 32.86h-7.42v22.19h7.42c6.9 0 11.75-4.44 11.75-11.1 0-6.64-4.85-11.09-11.75-11.09zm0 17.74h-2.97V37.31h2.97c4.17 0 7.16 3.17 7.16 6.64 0 3.45-2.99 6.65-7.16 6.65zm20.9-7.16c-3.08 0-5.28 2.3-5.28 5.46 0 3.17 2.2 5.47 5.28 5.47 3.08 0 5.28-2.3 5.28-5.47 0-3.16-2.2-5.46-5.28-5.46zm0 14.82c-5.28 0-9.73-3.93-9.73-9.36 0-5.42 4.45-9.35 9.73-9.35 5.3 0 9.74 3.93 9.74 9.35 0 5.43-4.44 9.36-9.74 9.36zm21.15-14.82c-3.08 0-5.28 2.3-5.28 5.46 0 3.17 2.2 5.47 5.28 5.47 3.08 0 5.28-2.3 5.28-5.47 0-3.16-2.2-5.46-5.28-5.46zm0 14.82c-5.28 0-9.73-3.93-9.73-9.36 0-5.42 4.45-9.35 9.73-9.35 5.3 0 9.74 3.93 9.74 9.35 0 5.43-4.44 9.36-9.74 9.36zm21.14-14.57h-1.53c-1.53 0-2.54.7-3.26 2.02v-1.76h-4.17v18.26h4.45v-9.35c0-2.3 1.27-3.57 3.08-3.57h1.43v-5.6zm11.75-.25c-2.8 0-4.7 1.3-5.8 2.56l2.8 2.8c.63-.63 1.53-1.27 2.8-1.27 1.53 0 2.54.9 2.54 1.77v.5c-.76-.37-1.78-.63-3.17-.63-3.44 0-5.8 1.9-5.8 4.7 0 2.8 2.1 4.7 5.04 4.7 1.77 0 2.8-.63 3.44-1.53v1.27h4.18v-9.1c0-3.43-2.55-5.77-6.03-5.77zm-.76 10.88c-1.27 0-2.17-.63-2.17-1.77s.9-1.77 2.17-1.77c1.02 0 1.78.26 2.3.63v1.77c-.52.63-1.28 1.14-2.3 1.14zm-63.2-10.63h4.44v18.26h-4.45V43.69zm-7.42-5.47c0-1.53-1.27-2.8-2.8-2.8-1.53 0-2.8 1.27-2.8 2.8 0 1.53 1.27 2.8 2.8 2.8 1.53 0 2.8-1.27 2.8-2.8zm-5.6 5.47h4.45v18.26h-4.45V43.69z" fill="#000"/><path d="M41.02 73.1c0-3.44 2.8-5.04 7.42-5.04 2.1 0 3.7.37 4.7.76v.5c0 1.9-1.53 3.08-4.18 3.08-1.27 0-2.17-.26-2.8-.63-.63.63-1.02 1.53-1.02 2.54 0 1.9 1.53 3.17 4.18 3.17 1.9 0 3.44-.5 4.7-1.27l1.9 3.7c-1.77 1.27-4.18 1.9-6.98 1.9-5.8 0-9.92-3.17-9.92-8.7zm48.38-4.7h-4.45v9.35c0 2.3-1.27 3.57-3.08 3.57h-1.4v5.6h1.53c1.53 0 2.54-.7 3.26-2.02v1.76h4.17V68.4zm-16.2 0h-4.44v18.26h4.45V68.4zm-2.17-2.8c1.53 0 2.8-1.27 2.8-2.8 0-1.53-1.27-2.8-2.8-2.8-1.53 0-2.8 1.27-2.8 2.8 0 1.53 1.27 2.8 2.8 2.8zm-7.42 12.15c0-5.42-4.44-9.35-9.73-9.35-5.28 0-9.73 3.93-9.73 9.35 0 5.43 4.45 9.36 9.73 9.36 5.3 0 9.74-3.93 9.74-9.36zm-9.73 5.46c-3.08 0-5.28-2.3-5.28-5.47 0-3.16 2.2-5.46 5.28-5.46 3.08 0 5.28 2.3 5.28 5.46 0 3.17-2.2 5.47-5.28 5.47z" fill="#000"/></svg>
