<svg xmlns="http://www.w3.org/2000/svg" viewBox="0 0 437 174"><g fill="none"><path fill="#5F6368" d="M207.2 84.6v50.8h-16.1V10h42.7c10.7 0 19.9 3.5 27.4 10.6 7.5 7.1 11.3 15.5 11.3 25.4 0 10.1-3.8 18.5-11.3 25.1-7.5 6.6-16.6 9.9-27.4 9.9h-26.6v3.6zm0-59.2v43.8h27c7.1 0 13.1-2.3 17.9-6.9 4.8-4.6 7.2-10.4 7.2-17.4 0-6.8-2.4-12.4-7.2-17-4.8-4.5-10.8-6.8-17.9-6.8h-27v4.3zM309.1 46.1c9.7 0 17.4 2.8 23.2 8.5 5.7 5.7 8.6 13.3 8.6 22.9v57.8h-15.4v-13h-.7c-5.5 10.4-12.9 15.6-22.3 15.6-7.9 0-14.5-2.3-19.8-6.9-5.3-4.6-7.9-10.4-7.9-17.4 0-7.3 2.8-13.2 8.4-17.6 5.6-4.4 13.1-6.6 22.5-6.6 8 0 14.5 1.5 19.6 4.4v-3.1c0-4.7-1.9-8.7-5.6-12-3.7-3.3-8.1-4.9-13.1-4.9-7.6 0-13.6 3.2-18.1 9.5l-14.2-8.9c6.9-9.5 17-14.3 30.4-14.3h4.4zm-17.4 62.8c0 3.3 1.4 6.1 4.1 8.4 2.7 2.3 5.9 3.4 9.5 3.4 5.2 0 9.9-1.9 14.1-5.7 4.2-3.8 6.3-8.4 6.3-13.7-4.2-3.3-10-5-17.4-5-5.4 0-9.9 1.3-13.4 3.9-3.6 2.6-5.3 5.5-5.3 8.7h2.1zM367.1 46.1c9.7 0 17.4 2.8 23.2 8.5 5.7 5.7 8.6 13.3 8.6 22.9v57.8h-15.4v-13h-.7c-5.5 10.4-12.9 15.6-22.3 15.6-7.9 0-14.5-2.3-19.8-6.9-5.3-4.6-7.9-10.4-7.9-17.4 0-7.3 2.8-13.2 8.4-17.6 5.6-4.4 13.1-6.6 22.5-6.6 8 0 14.5 1.5 19.6 4.4v-3.1c0-4.7-1.9-8.7-5.6-12-3.7-3.3-8.1-4.9-13.1-4.9-7.6 0-13.6 3.2-18.1 9.5l-14.2-8.9c6.9-9.5 17-14.3 30.4-14.3h4.4zm-17.4 62.8c0 3.3 1.4 6.1 4.1 8.4 2.7 2.3 5.9 3.4 9.5 3.4 5.2 0 9.9-1.9 14.1-5.7 4.2-3.8 6.3-8.4 6.3-13.7-4.2-3.3-10-5-17.4-5-5.4 0-9.9 1.3-13.4 3.9-3.6 2.6-5.3 5.5-5.3 8.7h2.1zM145 67.2c-4.3-4.3-11.2-4.3-15.5 0l-19.5 19.5-19.5-19.5c-4.3-4.3-11.2-4.3-15.5 0-4.3 4.3-4.3 11.2 0 15.5l19.5 19.5-19.5 19.5c-4.3 4.3-4.3 11.2 0 15.5 4.3 4.3 11.2 4.3 15.5 0l19.5-19.5 19.5 19.5c4.3 4.3 11.2 4.3 15.5 0 4.3-4.3 4.3-11.2 0-15.5l-19.5-19.5 19.5-19.5c4.3-4.3 4.3-11.2 0-15.5z"/><path fill="#4285F4" d="M81.5 53.1L65.9 37.5c-2.1-2.1-5.5-2.1-7.6 0-2.1 2.1-2.1 5.5 0 7.6l15.6 15.6c2.1 2.1 5.5 2.1 7.6 0 2.1-2.1 2.1-5.5 0-7.6z"/><path fill="#34A853" d="M81.5 120.9c-2.1-2.1-5.5-2.1-7.6 0L58.3 136.5c-2.1 2.1-2.1 5.5 0 7.6 2.1 2.1 5.5 2.1 7.6 0l15.6-15.6c2.1-2.1 2.1-5.5 0-7.6z"/><path fill="#EA4335" d="M15.6 53.1c-2.1 2.1-2.1 5.5 0 7.6l15.6 15.6c2.1 2.1 5.5 2.1 7.6 0 2.1-2.1 2.1-5.5 0-7.6L23.2 53.1c-2.1-2.1-5.5-2.1-7.6 0z"/><path fill="#FBBC05" d="M38.8 136.5L23.2 120.9c-2.1-2.1-5.5-2.1-7.6 0-2.1 2.1-2.1 5.5 0 7.6l15.6 15.6c2.1 2.1 5.5 2.1 7.6 0 2.1-2.1 2.1-5.5 0-7.6z"/></g></svg>
