<svg width="48" height="32" viewBox="0 0 48 32" fill="none" xmlns="http://www.w3.org/2000/svg">
  <rect width="48" height="32" rx="4" fill="white"/>
  <path d="M30.5 9H17.5C13.9 9 11 11.9 11 15.5C11 19.1 13.9 22 17.5 22H30.5C34.1 22 37 19.1 37 15.5C37 11.9 34.1 9 30.5 9Z" fill="white"/>
  <path d="M17.5 9C13.9 9 11 11.9 11 15.5C11 19.1 13.9 22 17.5 22C21.1 22 24 19.1 24 15.5C24 11.9 21.1 9 17.5 9Z" fill="#EB001B"/>
  <path d="M30.5 9C26.9 9 24 11.9 24 15.5C24 19.1 26.9 22 30.5 22C34.1 22 37 19.1 37 15.5C37 11.9 34.1 9 30.5 9Z" fill="#F79E1B"/>
  <path d="M24 11.3C25.1 12.3 25.8 13.8 25.8 15.5C25.8 17.2 25.1 18.7 24 19.7C22.9 18.7 22.2 17.2 22.2 15.5C22.2 13.8 22.9 12.3 24 11.3Z" fill="#FF5F00"/>
</svg> 