<svg width="48" height="32" viewBox="0 0 48 32" fill="none" xmlns="http://www.w3.org/2000/svg">
  <rect width="48" height="32" rx="4" fill="white"/>
  <path d="M33.5 13.2C33.5 15.5 32 17.2 29.7 17.2H28.1C27.8 17.2 27.6 17.4 27.5 17.7L26.8 21.7C26.8 21.9 26.6 22 26.4 22H24.1C23.9 22 23.8 21.8 23.8 21.7L25.5 11.3C25.5 11.1 25.7 11 25.9 11H31.1C32.5 11 33.5 11.9 33.5 13.2Z" fill="#253B80"/>
  <path d="M19.9 13.2C19.9 15.5 18.4 17.2 16.1 17.2H14.5C14.2 17.2 14 17.4 13.9 17.7L13.2 21.7C13.2 21.9 13 22 12.8 22H10.5C10.3 22 10.2 21.8 10.2 21.7L11.9 11.3C11.9 11.1 12.1 11 12.3 11H17.5C18.9 11 19.9 11.9 19.9 13.2Z" fill="#179BD7"/>
  <path d="M19.9 13.2C19.9 13.3 19.9 13.4 19.9 13.5C19.1 16.5 16.9 17.2 14.2 17.2H13.2C13 17.2 12.8 17.4 12.7 17.7L12 21.7C12 21.9 11.8 22 11.6 22H9.3C9.1 22 9 21.8 9 21.7L10.7 11.3C10.7 11.1 10.9 11 11.1 11H16.3C17.7 11 18.7 11.9 19.9 13.2Z" fill="#253B80"/>
  <path d="M33.5 13.2C33.5 13.3 33.5 13.4 33.5 13.5C32.7 16.5 30.5 17.2 27.8 17.2H26.8C26.6 17.2 26.4 17.4 26.3 17.7L25.6 21.7C25.6 21.9 25.4 22 25.2 22H22.9C22.7 22 22.6 21.8 22.6 21.7L24.3 11.3C24.3 11.1 24.5 11 24.7 11H29.9C31.3 11 32.3 11.9 33.5 13.2Z" fill="#179BD7"/>
</svg> 