<svg viewBox="0 0 60 25" xmlns="http://www.w3.org/2000/svg"><path d="M59.64 14.28h-8.06v-1.4h8.05l.01 1.4zm-8.06-5.75h8.05v1.4h-8.05v-1.4zm-8.73 5.75V8.66c0-.85.68-1.54 1.53-1.54h1.55v12.84h-1.55c-.85 0-1.53-.7-1.53-1.55v-3.38zm-1.35-9.86c.85 0 1.55.69 1.55 1.54v9.86c0 .85-.7 1.54-1.55 1.54h-1.54V3.42h1.54zm-5.36 9.86V8.66c0-.85.68-1.54 1.53-1.54h1.55v12.84h-1.55c-.85 0-1.53-.7-1.53-1.55v-3.38zm-1.36-9.86c.85 0 1.55.69 1.55 1.54v9.86c0 .85-.7 1.54-1.55 1.54h-1.54V3.42h1.54zm-5.35 9.86V8.66c0-.85.68-1.54 1.53-1.54h1.55v12.84h-1.55c-.85 0-1.53-.7-1.53-1.55v-3.38zm-1.36-9.86c.85 0 1.55.69 1.55 1.54v9.86c0 .85-.7 1.54-1.55 1.54h-1.54V3.42h1.54zm-5.35 9.86V8.66c0-.85.68-1.54 1.53-1.54h1.55v12.84h-1.55c-.85 0-1.53-.7-1.53-1.55v-3.38zm-1.36-9.86c.85 0 1.55.69 1.55 1.54v9.86c0 .85-.7 1.54-1.55 1.54h-1.54V3.42h1.54zM9.09 14.28H1.03v-1.4h8.06v1.4zM1.03 8.53h8.06v1.4H1.03v-1.4z" fill="#635BFF"/></svg>
