<svg width="48" height="32" viewBox="0 0 48 32" fill="none" xmlns="http://www.w3.org/2000/svg">
  <rect width="48" height="32" rx="4" fill="white"/>
  <path d="M18.7 21.9H15.2L17.5 10.1H21L18.7 21.9Z" fill="#00579F"/>
  <path d="M31.5 10.3C30.7 10 29.5 9.7 28 9.7C24.8 9.7 22.5 11.4 22.5 13.8C22.5 15.6 24.1 16.6 25.3 17.2C26.5 17.8 26.9 18.2 26.9 18.7C26.9 19.5 25.9 19.9 25 19.9C23.7 19.9 23 19.7 21.9 19.2L21.5 19L21.1 22C21.9 22.4 23.4 22.7 25 22.7C28.4 22.7 30.6 21 30.6 18.5C30.6 17.1 29.7 16 27.9 15.1C26.8 14.5 26.1 14.1 26.1 13.5C26.1 13 26.6 12.5 27.8 12.5C28.8 12.5 29.5 12.7 30.1 13L30.4 13.1L30.8 10.4L31.5 10.3Z" fill="#00579F"/>
  <path d="M35.9 17.5C36.2 16.7 37.2 14 37.2 14H38.5C38.6 14.3 39 15.4 39.2 16L39.9 14H43L40.7 21.9H37.6L35.2 11.9H38.3L39.5 16.2L35.9 17.5Z" fill="#00579F"/>
  <path d="M13.7 11.9L10.8 18.7L10.5 17.5C9.9 15.9 8.2 14.1 6.3 13L9.1 21.9H12.3L17.1 11.9H13.7Z" fill="#00579F"/>
  <path d="M8.3 11.9H3.5L3.4 12.2C7.1 13.1 9.5 15.1 10.5 17.5L9.5 13C9.3 12.2 8.9 12 8.3 11.9Z" fill="#FAA61A"/>
</svg> 