<svg width="512" height="512" viewBox="0 0 512 512" fill="none" xmlns="http://www.w3.org/2000/svg">
<g clip-path="url(#clip0_1_2)">
<rect width="512" height="512" fill="white"/>
<path d="M172.396 379.389C172.094 379.089 171.808 378.776 171.581 378.413C164.323 366.896 160.877 353.788 156.888 340.917C154.83 334.269 152.568 327.686 150.935 320.918C149.784 316.153 148.902 311.336 147.82 306.554C146.947 302.702 145.799 298.8 145.238 294.89C144.423 289.209 144.281 283.398 143.767 277.684C142.781 266.745 141.511 255.83 139.957 244.956C137.187 226.295 132.439 208.152 128.322 189.775C127.262 185.045 126.682 180.22 125.673 175.479C124.957 172.118 124.161 168.684 123.045 165.431C118.957 153.517 109.63 146.774 114.483 126.557C115.302 123.144 116.954 120.034 120.047 118.191C123.016 116.422 126.623 116.396 129.888 117.246C136.574 118.988 142.14 125.658 146.156 130.994C149.902 135.97 153.776 141.166 156.53 146.774C165.275 164.579 164.895 189.934 167.655 209.606C168.539 215.911 169.754 223.529 173.115 229.05C174.028 230.549 175.278 231.922 177.074 232.279C178.683 232.598 180.23 231.99 181.534 231.08C185.822 228.08 185.992 221.454 185.903 216.699C185.755 208.747 184.034 200.86 182.522 193.077C181.241 186.709 180.101 180.313 179.104 173.894C178.083 167.468 177.1 161.014 176.5 154.533C175.02 138.555 174.921 122.441 174.548 106.412C174.305 95.9572 173.241 84.9166 175.198 74.5955C176.52 67.6248 179.357 60.1392 185.46 56.0376C189.798 53.1228 194.935 52.2049 200.05 53.2602C205.61 54.4069 209.833 58.768 211.681 64.0265C214.058 70.7908 213.282 78.4554 213.438 85.5168C213.598 91.4123 213.805 97.3065 214.061 103.199C214.391 110.213 214.699 117.246 215.427 124.231C216.632 135.796 218.402 147.241 219.031 158.865C219.357 164.882 219.263 171.037 219.038 177.059C218.843 182.254 218.44 187.354 218.955 192.549C219.367 196.709 220.048 201.805 222.431 205.323C223.191 206.445 224.38 207.787 225.787 207.985C226.324 208.061 226.811 207.921 227.231 207.577C228.411 206.612 228.926 204.587 229.086 203.119C229.473 199.552 229.233 195.711 229.281 192.11C229.347 184.139 229.458 176.169 229.615 168.199C230.37 138.812 230.665 109.414 230.503 80.0175C230.46 70.6903 229.528 61.1356 230.133 51.8526C230.579 45.0103 232.189 37.7958 237.602 33.1117C241.183 30.013 247.045 29.0408 251.637 29.4013C259.62 30.028 265.089 34.6958 267.991 42.007C268.889 44.2902 269.478 46.6829 269.744 49.1217C270.172 52.7695 270.062 56.5605 270.171 60.233C270.409 67.3031 270.603 74.3745 270.754 81.4468C271.3 104.686 271.833 127.874 270.765 151.11C270.197 163.471 268.206 177.249 268.585 189.441C268.674 192.315 268.878 196.477 270.973 198.709C271.665 199.444 272.696 199.853 273.702 199.841C275.189 199.824 276.303 198.364 276.935 197.162C279.141 192.963 279.148 186.323 279.844 181.628C280.907 174.745 281.911 167.852 282.857 160.952C285.671 140.714 289.626 120.71 293.111 100.585L296.69 79.3829C297.499 74.5641 298.17 69.5985 299.516 64.898C300.404 61.7961 301.756 58.9535 303.978 56.5815C307.502 52.8196 312.613 50.9867 317.692 50.8524C322.542 50.7244 327.33 52.1068 330.867 55.5447C333.616 58.2214 335.101 61.6955 335.556 65.4773C336.139 70.2993 335.532 75.22 335.063 80.0251C334.412 86.7083 333.54 93.3798 332.949 100.066C331.221 119.582 331.464 139.197 329.483 158.695C328.989 164.076 328.248 169.431 327.262 174.743C326.038 181.32 324.504 187.826 323.788 194.489C323.281 199.2 323.376 204.047 323.439 208.783C323.523 215.107 324.019 221.444 324.39 227.759C325.254 242.486 324.39 242.765 331.115 258.947C332.884 261.772 332.232 260.621 338.091 262.295C342.555 253.088 342.713 253.541 342.555 243.602C342.441 236.436 342.695 227.655 344.567 220.614C345.968 215.342 350.82 207.739 353.716 203.119C357.37 197.285 359.826 194.455 364.426 189.374C367.41 186.079 370.339 182.622 373.65 179.65C375.592 177.888 377.72 176.34 379.996 175.032C386.088 171.523 393.693 167.191 400.952 169.222C403.873 170.04 406.01 172.039 407.465 174.656C409.533 178.371 409.988 182.632 410.127 186.81C410.348 193.49 409.593 200.324 407.002 206.534C405.454 210.248 403.282 213.638 401.402 217.185C399.07 221.587 397.328 226.541 396.337 231.42C393.62 244.796 395.418 257.765 396.623 271.167C397.634 282.422 398.157 295.727 395.991 306.889C394.555 314.273 391.792 321 389.097 327.986C386.726 334.13 384.492 340.339 382.211 346.519C380.59 350.903 378.775 355.393 377.486 359.878L377.426 360.087C376.064 412.55 335.722 455.724 283.471 460.645C231.218 465.563 183.526 430.677 172.396 379.389Z" fill="#7C65DA"/>
<path d="M172.27 379.521C163.781 340.407 178.561 299.9 210.247 275.441C241.933 250.982 284.867 246.939 320.561 265.055C356.256 283.171 378.339 320.207 377.3 360.22C375.938 412.683 335.597 455.857 283.345 460.777C231.092 465.695 183.4 430.809 172.27 379.521Z" fill="black"/>
<path d="M269.113 260.927C322.447 258.44 367.706 299.636 370.229 352.965C372.75 406.291 331.58 451.574 278.251 454.132C224.871 456.69 179.533 415.478 177.009 362.1C174.484 308.725 215.731 263.418 269.113 260.927Z" fill="white"/>
<path d="M252.24 287.062C278.896 284.882 302.263 304.742 304.407 331.399C306.551 358.054 286.658 381.393 259.997 383.502C233.385 385.608 210.097 365.762 207.957 339.154C205.817 312.548 225.634 289.236 252.24 287.062Z" fill="black"/>
<path d="M253.625 293.963C276.394 292.557 296.003 309.848 297.458 332.612C298.914 355.376 281.667 375.023 258.904 376.53C236.069 378.039 216.345 360.727 214.885 337.892C213.425 315.054 230.783 295.372 253.625 293.963Z" fill="url(#paint0_linear_1_2)"/>
<path d="M252.52 311.27C254.678 311.098 256.812 310.984 258.976 311.169C265.1 311.698 270.934 315.057 274.828 319.765C278.948 324.746 280.926 331.157 280.329 337.592C279.62 344.175 276.334 350.21 271.19 354.376C265.373 359.016 258.852 359.893 251.665 359.084C251.426 359.032 251.187 358.98 250.948 358.923C244.736 357.485 239.257 353.88 235.85 348.434C234.795 346.744 233.8 344.456 232.472 343.001C230.272 340.589 227.29 339.707 225.45 336.707C223.334 333.26 222.797 328.558 223.744 324.661C224.698 320.629 227.253 317.155 230.821 315.046C235.267 312.42 239.787 312.504 244.637 313.749C247.23 312.706 249.755 311.747 252.52 311.27Z" fill="url(#paint1_linear_1_2)"/>
<path d="M236.853 320.059C239.884 319.318 243.081 320.264 245.22 322.539C247.358 324.811 248.107 328.059 247.181 331.04C246.254 334.02 243.794 336.271 240.743 336.93C236.114 337.93 231.541 335.028 230.477 330.413C229.413 325.8 232.254 321.187 236.853 320.059Z" fill="white"/>
</g>
<defs>
<linearGradient id="paint0_linear_1_2" x1="256.172" y1="293.883" x2="256.172" y2="376.621" gradientUnits="userSpaceOnUse">
<stop stop-color="#60FFCD"/>
<stop offset="1" stop-color="#0090CB"/>
</linearGradient>
<linearGradient id="paint1_linear_1_2" x1="251.864" y1="311.074" x2="251.864" y2="359.351" gradientUnits="userSpaceOnUse">
<stop/>
<stop offset="0.490385" stop-color="#323232"/>
<stop offset="1"/>
</linearGradient>
<clipPath id="clip0_1_2">
<rect width="512" height="512" fill="white"/>
</clipPath>
</defs>
</svg>
