<svg width="2000" height="2000" viewBox="0 0 2000 2000" fill="none" xmlns="http://www.w3.org/2000/svg">
<rect width="2000" height="2000" fill="#EBFF7F"/>
<g clip-path="url(#clip0_14_26)">
<path d="M1538.98 1068.55C1539.64 1129.66 1539.49 1129.77 1477.24 1126.41C1403.53 1122.42 1357.37 1077.41 1354.5 1003.72C1352.53 953.363 1353.73 902.885 1353.54 852.459C1353.5 842.379 1353.72 828.689 1353.72 816.333C1324.07 816.333 1322.14 816.333 1294.6 816.333V738.477C1313.86 738.309 1294.42 738.236 1353.54 738.477L1353.72 625.974C1413.42 625.757 1443.28 626.552 1443.29 628.358C1443.31 630.164 1443.31 666.87 1443.29 738.477H1535.16C1537.76 738.477 1540.11 742.457 1540.21 743.213C1549.82 817.774 1552.78 816.07 1477.24 816.333C1468 816.366 1458.1 816.333 1444.22 816.333C1444.22 851.158 1444.13 886.011 1444.22 919.16C1444.29 944.376 1443.95 969.609 1444.91 994.791C1446.13 1026.76 1458.73 1039.87 1490.82 1043.38C1505.51 1044.98 1520.35 1045.15 1537.76 1046.11C1538.29 1055.65 1538.92 1062.1 1538.98 1068.55ZM1833.84 1068.55C1834.49 1129.66 1834.35 1129.77 1772.1 1126.41C1698.39 1122.42 1652.23 1077.41 1649.35 1003.72C1647.39 953.363 1648.59 902.885 1648.39 852.459C1648.35 842.379 1648.58 828.689 1648.58 816.333C1618.93 816.333 1616.99 816.333 1589.46 816.333V738.477C1608.72 738.309 1589.27 738.236 1648.39 738.477L1648.58 625.974C1708.28 625.757 1738.13 626.552 1738.15 628.358C1738.16 630.164 1738.16 666.87 1738.15 738.477H1830.02C1832.61 738.477 1834.97 742.457 1835.06 743.213C1844.68 817.774 1847.64 816.07 1772.1 816.333C1762.86 816.366 1752.95 816.333 1739.08 816.333C1739.08 851.158 1738.98 886.011 1739.08 919.16C1739.15 944.376 1738.8 969.609 1739.77 994.791C1740.99 1026.76 1753.58 1039.87 1785.67 1043.38C1800.36 1044.98 1815.21 1045.15 1832.61 1046.11C1833.15 1055.65 1833.77 1062.1 1833.84 1068.55ZM1176.66 705.664C1206.62 705.664 1230.91 681.528 1230.91 651.756C1230.91 621.983 1206.62 597.848 1176.66 597.848C1146.7 597.848 1122.41 621.983 1122.41 651.756C1122.41 681.528 1146.7 705.664 1176.66 705.664ZM1130.48 729.102H1221.48V1129.33H1130.48V729.102ZM1060.61 1049.94V1122.94C980.925 1144.49 914.098 1104.72 912.176 1027.14C908.359 873.131 910.988 718.969 911.067 564.869C911.067 563.186 912.549 561.502 914.194 558H999.026C999.829 571.042 1001.19 582.912 1001.19 594.787C1001.24 725.569 1000.97 856.351 1001.05 987.139C1001.08 1040.25 1005.52 1044.84 1060.61 1049.94ZM630.748 707.65C747.694 707.65 842.498 801.919 842.498 918.205C842.498 1034.49 747.694 1128.76 630.748 1128.76C513.801 1128.76 418.997 1034.49 418.997 918.205C418.997 801.919 513.801 707.65 630.748 707.65ZM630.748 784.215C556.327 784.215 495.998 844.204 495.998 918.205C495.998 992.205 556.327 1052.19 630.748 1052.19C705.168 1052.19 765.498 992.205 765.498 918.205C765.498 844.204 705.168 784.215 630.748 784.215ZM369.177 818.112C351.736 816.923 337.985 815.157 324.24 815.207C278.99 815.375 252.139 840.233 251.27 885.578C249.929 955.501 249.97 1025.46 250.799 1095.4C251.27 1135.16 255.873 1128.76 232.574 1128.76C214.349 1128.76 181.574 1128.76 160.488 1128.76C159.953 1122.12 159.858 1043.04 160.202 891.512C160.976 785.958 236.289 715.455 340.991 730.253C363.953 733.499 369.586 737.761 369.586 761.21C369.586 780.235 369.586 799.392 369.586 819.241" fill="black"/>
<path d="M531.2 1275.21V1401.68C531.2 1403.17 531.956 1403.92 533.469 1403.92H667.598C669.11 1403.92 669.867 1403.17 669.867 1401.68V1275.21C669.867 1273.88 669.11 1273.22 667.598 1273.22H533.469C531.956 1273.22 531.2 1273.88 531.2 1275.21ZM517.838 1428.06C513.972 1428.06 510.61 1426.65 507.753 1423.83C504.895 1421.01 503.467 1417.69 503.467 1413.87V1263.01C503.467 1259.2 504.895 1255.88 507.753 1253.05C510.61 1250.23 513.972 1248.82 517.838 1248.82H683.229C687.095 1248.82 690.457 1250.23 693.314 1253.05C696.171 1255.88 697.6 1259.2 697.6 1263.01V1413.87C697.6 1417.69 696.171 1421.01 693.314 1423.83C690.457 1426.65 687.095 1428.06 683.229 1428.06H531.2H517.838Z" fill="#121212" fill-opacity="0.9"/>
<path d="M919.303 1245.65C922.218 1242.79 925.649 1241.35 929.593 1241.35C933.538 1241.35 936.925 1242.74 939.755 1245.52C942.585 1248.3 944 1251.62 944 1255.49V1308.27C944 1349.01 934.739 1380.02 916.216 1401.32C897.692 1422.61 868.021 1436.46 827.202 1442.85C823.6 1443.36 820.299 1442.56 817.297 1440.45C814.296 1438.35 812.366 1435.53 811.509 1432C810.823 1428.63 811.466 1425.56 813.438 1422.78C815.411 1420 818.112 1418.28 821.542 1417.6C856.359 1411.54 880.67 1400.43 894.477 1384.27C908.283 1368.11 915.186 1343.03 915.186 1309.03V1255.49C915.186 1251.62 916.559 1248.34 919.303 1245.65ZM797.359 1353.72C793.586 1353.72 790.327 1352.37 787.583 1349.68C784.839 1346.99 783.467 1343.7 783.467 1339.83V1255.24C783.467 1251.37 784.839 1248.09 787.583 1245.39C790.327 1242.7 793.586 1241.35 797.359 1241.35C801.304 1241.35 804.691 1242.74 807.521 1245.52C810.351 1248.3 811.766 1251.54 811.766 1255.24V1339.83C811.766 1343.53 810.351 1346.78 807.521 1349.55C804.691 1352.33 801.304 1353.72 797.359 1353.72Z" fill="#121212" fill-opacity="0.9"/>
<path d="M1196.99 1282.45C1200.5 1282.62 1203.44 1284 1205.78 1286.58C1208.13 1289.16 1209.22 1292.25 1209.05 1295.87C1206.87 1341.81 1196.86 1375.57 1179.02 1397.16C1161.17 1418.75 1132.23 1432.73 1092.18 1439.1C1089 1439.62 1086.11 1438.93 1083.51 1437.04C1080.91 1435.14 1079.2 1432.48 1078.36 1429.03C1077.69 1425.77 1078.27 1422.8 1080.12 1420.13C1081.96 1417.46 1084.47 1415.87 1087.66 1415.36C1121.84 1409.34 1146.01 1397.59 1160.17 1380.13C1174.32 1362.67 1182.32 1334.15 1184.17 1294.58C1184.34 1291.14 1185.68 1288.21 1188.19 1285.8C1190.7 1283.39 1193.63 1282.28 1196.99 1282.45ZM1060.26 1349.81C1056.07 1332.6 1052.3 1317.8 1048.95 1305.42C1048.11 1302.15 1048.53 1299.09 1050.21 1296.25C1051.88 1293.42 1054.4 1291.57 1057.75 1290.71C1061.1 1290.02 1064.24 1290.58 1067.17 1292.38C1070.11 1294.19 1072.07 1296.81 1073.08 1300.25C1077.77 1317.12 1081.63 1331.83 1084.64 1344.39C1085.48 1347.65 1084.98 1350.79 1083.13 1353.81C1081.29 1356.82 1078.69 1358.75 1075.34 1359.61C1071.99 1360.3 1068.85 1359.7 1065.92 1357.81C1062.98 1355.91 1061.1 1353.25 1060.26 1349.81ZM1138.17 1349.03C1136.5 1351.96 1133.99 1353.85 1130.63 1354.71C1127.28 1355.57 1124.1 1355.05 1121.08 1353.16C1118.07 1351.27 1116.14 1348.6 1115.3 1345.16C1110.95 1327.44 1107.01 1311.95 1103.49 1298.71C1102.65 1295.44 1103.11 1292.34 1104.87 1289.42C1106.63 1286.49 1109.19 1284.6 1112.54 1283.74C1115.89 1282.88 1119.12 1283.44 1122.21 1285.42C1125.31 1287.39 1127.28 1290.1 1128.12 1293.54C1133.82 1315.74 1137.67 1331.05 1139.68 1339.48C1140.52 1342.92 1140.02 1346.11 1138.17 1349.03Z" fill="#121212" fill-opacity="0.9"/>
<path d="M1348.63 1438.99C1345.93 1441.66 1342.63 1443 1338.74 1443C1334.86 1443 1331.56 1441.66 1328.86 1438.99C1326.15 1436.32 1324.8 1433.06 1324.8 1429.22V1251.4C1324.8 1247.56 1326.15 1244.3 1328.86 1241.63C1331.56 1238.96 1334.86 1237.62 1338.74 1237.62C1342.63 1237.62 1345.93 1238.96 1348.63 1241.63C1351.33 1244.3 1352.69 1247.56 1352.69 1251.4V1307.25C1352.69 1308.75 1353.28 1309.59 1354.46 1309.75C1396.71 1319.94 1438.63 1332.38 1480.2 1347.07C1483.58 1348.24 1486.07 1350.5 1487.68 1353.84C1489.29 1357.17 1489.5 1360.6 1488.31 1364.1C1487.13 1367.44 1484.89 1369.91 1481.6 1371.49C1478.3 1373.08 1474.96 1373.29 1471.58 1372.12C1432.71 1358.26 1393.75 1346.49 1354.71 1336.8C1353.36 1336.47 1352.69 1336.97 1352.69 1338.31V1429.22C1352.69 1433.06 1351.33 1436.32 1348.63 1438.99Z" fill="#121212" fill-opacity="0.9"/>
</g>
<defs>
<clipPath id="clip0_14_26">
<rect width="1680" height="885" fill="white" transform="translate(160 558)"/>
</clipPath>
</defs>
</svg>
