
<svg width="800px" height="800px" viewBox="0 0 800 800" version="1.1" xmlns="http://www.w3.org/2000/svg" xmlns:xlink="http://www.w3.org/1999/xlink">
    <g id="页面-1" stroke="none" stroke-width="1" fill="none" fill-rule="evenodd">
        <g id="alipay-svgrepo-com">
            <path d="M800,0 L800,800 L0,800 L0,0 L800,0 Z M419.783003,775.261367 L419.398007,775.317103 L417.029257,776.501463 L416.39597,776.624897 L416.39597,776.624897 L415.890507,776.501463 L413.521827,775.317103 C413.194097,775.212207 412.901643,775.300783 412.73807,775.496913 L412.601077,775.861033 L412.031367,790.103657 L412.19649,790.783313 L412.563493,791.190463 L416.015923,793.656437 L416.511637,793.787113 L416.511637,793.787113 L416.90384,793.656437 L420.35634,791.190463 L420.77646,790.655777 L420.77646,790.655777 L420.888423,790.103657 L420.3187,775.861033 C420.252413,775.523377 420.033707,775.309977 419.783003,775.261367 L419.783003,775.261367 Z M428.61302,771.50954 L428.151617,771.576907 L421.99481,774.655323 L421.66274,774.99684 L421.66274,774.99684 L421.573143,775.37038 L422.16981,789.687963 L422.331163,790.113927 L422.331163,790.113927 L422.612867,790.34977 L429.31134,793.441297 C429.714283,793.56333 430.074443,793.432917 430.260953,793.174213 L430.394117,792.705463 L429.255923,772.21777 C429.176273,771.819657 428.913673,771.56672 428.61302,771.50954 L428.61302,771.50954 Z M404.768243,771.576907 C404.440593,771.413083 404.072543,771.508687 403.85455,771.75318 L403.66391,772.21777 L402.525713,792.705463 C402.50441,793.088797 402.76033,793.39534 403.08827,793.485587 L403.608533,793.441297 L410.30702,790.34977 L410.621657,790.081157 L410.621657,790.081157 L410.750143,789.687963 L411.3467,775.37038 L411.2415,774.950587 L411.2415,774.950587 L410.925103,774.655323 L404.768243,771.576907 Z" id="MingCute"></path>
            <path d="M696.423333,552.61 C720.013333,506.883333 733.333333,454.996667 733.333333,400 C733.333333,215.905 584.093333,66.6666667 400,66.6666667 C215.905,66.6666667 66.6666667,215.905 66.6666667,400 C66.6666667,584.093333 215.905,733.333333 400,733.333333 C505.03,733.333333 598.716667,684.756667 659.816667,608.843333 L635.643333,596.756667 C595.213333,578.373333 560.246667,561.906667 529.22,547.296667 C502.396667,534.666667 478.506667,523.42 456.593333,513.523333 C446.35,527.99 436.03,540.276667 425.653333,550.653333 C388.266667,588.04 350.67,600 316.666667,600 C254.398333,600 200,560.67 200,500 C200,443.866667 249.331333,400 300,400 C342.253333,400 383.13,411.12 429.563333,429.473333 C436.63,415.9 443.84,400.593333 451.15,383.333333 L300,383.333333 C281.590333,383.333333 266.666667,368.41 266.666667,350 C266.666667,331.590667 281.590333,316.666667 300,316.666667 L366.666667,316.666667 L366.666667,300 L266.666667,300 C248.257333,300 233.333333,285.076 233.333333,266.666667 C233.333333,248.257333 248.257333,233.333333 266.666667,233.333333 L366.666667,233.333333 L366.666667,200 C366.666667,181.590667 381.59,166.666667 400,166.666667 C418.41,166.666667 433.333333,181.590667 433.333333,200 L433.333333,233.333333 L533.333333,233.333333 C551.743333,233.333333 566.666667,248.257333 566.666667,266.666667 C566.666667,285.076 551.743333,300 533.333333,300 L433.333333,300 L433.333333,316.666667 L500,316.666667 C510.873333,316.666667 521.063333,321.970333 527.303333,330.876667 C533.54,339.783333 535.043333,351.173333 531.326667,361.39 C518.05,397.903333 504.576667,429.186667 490.94,455.913333 C511.893333,465.463333 534.7,476.193333 559.613333,487.916667 C590.866667,502.62 625.433333,518.883333 663.793333,536.32 C664.166667,536.49 664.54,536.67 664.906667,536.853333 L696.423333,552.61 Z" id="路径" fill="#0068FF" fill-rule="nonzero"></path>
            <path d="M300,466.666667 C327.551333,466.666667 356.236667,473.143333 393.23,486.933333 C388.18,493.266667 383.266667,498.76 378.513333,503.513333 C353.4,528.626667 332.664,533.333333 316.666667,533.333333 C278.935,533.333333 266.666667,512.663333 266.666667,500 C266.666667,482.8 284.002,466.666667 300,466.666667 Z" id="路径" fill="#0068FF" fill-rule="nonzero"></path>
        </g>
    </g>
</svg>