
<svg width="923.077547px" height="379.010021px" viewBox="0 0 923.077547 379.010021" version="1.1" xmlns="http://www.w3.org/2000/svg" xmlns:xlink="http://www.w3.org/1999/xlink">
    <defs>
        <linearGradient x1="50%" y1="100%" x2="50%" y2="6.16297582e-31%" id="linearGradient-05r-vn1brj-1">
            <stop stop-color="#424242" offset="0%"></stop>
            <stop stop-color="#B6B6B6" offset="100%"></stop>
        </linearGradient>
    </defs>
    <g id="页面-1" stroke="none" stroke-width="1" fill="none" fill-rule="evenodd">
        <g id="Apple_Pay-Logo.wine" fill="url(#linearGradient-05r-vn1brj-1)" fill-rule="nonzero">
            <path d="M123.225761,70.3206034 C121.06205,53.0109164 129.536585,34.619374 139.453593,23.2598919 C150.272147,10.0973174 169.204617,0.721236957 184.530903,0 C186.333995,18.0309239 179.301935,35.7012294 168.66369,48.8638039 C157.845135,61.6657599 140.535448,71.7630773 123.225761,70.3206034 Z M184.350593,73.7464789 C159.287609,72.304005 137.83081,87.9909088 125.9304,87.9909088 C113.849681,87.9909088 95.6384477,74.4677159 75.8044313,74.8283343 C50.0202101,75.1889528 26.0390813,89.7940012 12.8765068,113.053893 C-14.1698791,159.573677 5.84444645,228.451806 31.9892862,266.316747 C44.7912422,285.068907 60.1175275,305.624161 80.3121623,304.902924 C99.4249417,304.181687 106.99793,292.461586 130.077512,292.461586 C153.337404,292.461586 160.008846,304.902924 180.203481,304.542305 C201.119353,304.181687 214.281927,285.790144 227.083883,267.037983 C241.688932,245.761493 247.639136,225.025931 247.999755,223.944075 C247.639136,223.583457 207.610485,208.257171 207.249867,162.098006 C206.889248,123.511829 238.803984,105.120287 240.246458,104.038431 C222.215534,77.3526637 194.087292,74.4677159 184.350593,73.7464789 M329.138913,21.4567995 L329.138913,302.558904 L372.773749,302.558904 L372.773749,206.454079 L433.177344,206.454079 C488.351971,206.454079 527.118457,168.589139 527.118457,113.77513 C527.118457,58.9611213 489.073208,21.4567995 434.619818,21.4567995 L329.138913,21.4567995 Z M372.773749,58.2398843 L423.080026,58.2398843 C460.944967,58.2398843 482.582075,78.4345191 482.582075,113.955439 C482.582075,149.476359 460.944967,169.851303 422.899717,169.851303 L372.773749,169.851303 L372.773749,58.2398843 Z M606.815141,304.722615 C634.222146,304.722615 659.645748,290.838803 671.18554,268.841076 L672.087086,268.841076 L672.087086,302.558904 L712.476356,302.558904 L712.476356,162.638934 C712.476356,122.069355 680.020692,95.9245153 630.075033,95.9245153 C583.735559,95.9245153 549.476803,122.429974 548.214638,158.85244 L587.522053,158.85244 C590.767619,141.542753 606.815141,130.183271 628.812868,130.183271 C655.498636,130.183271 670.464303,142.624608 670.464303,165.523882 L670.464303,181.030476 L616.010912,184.276043 C565.344016,187.3413 537.937012,208.076862 537.937012,244.13871 C537.937012,280.561176 566.245562,304.722615 606.815141,304.722615 L606.815141,304.722615 Z M618.535242,271.365405 C595.27535,271.365405 580.489992,260.186232 580.489992,243.056855 C580.489992,225.386549 594.734422,215.108923 621.961117,213.486139 L670.464303,210.420882 L670.464303,226.288095 C670.464303,252.613244 648.105957,271.365405 618.535242,271.365405 L618.535242,271.365405 Z M766.388818,379.010021 C808.941799,379.010021 828.956124,362.78219 846.44612,313.557767 L923.077547,98.6291539 L878.721474,98.6291539 L827.333341,264.693963 L826.431795,264.693963 L775.043662,98.6291539 L729.425424,98.6291539 L803.352212,303.280141 L799.385409,315.721478 C792.713967,336.817659 781.895413,344.931575 762.602324,344.931575 C759.176449,344.931575 752.505007,344.570956 749.800368,344.210338 L749.800368,377.928166 C752.324697,378.649403 763.143252,379.010021 766.388818,379.010021 L766.388818,379.010021 Z" id="形状"></path>
        </g>
    </g>
</svg>