
<svg width="788.571429px" height="537.142857px" viewBox="0 0 788.571429 537.142857" version="1.1" xmlns="http://www.w3.org/2000/svg" xmlns:xlink="http://www.w3.org/1999/xlink">
    <defs>
        <linearGradient x1="50%" y1="0%" x2="50%" y2="100%" id="linearGradient-xsqoxvfj_w-1">
            <stop stop-color="#FFFFFF" offset="0%"></stop>
            <stop stop-color="#EEEEEE" offset="99.9071241%"></stop>
        </linearGradient>
    </defs>
    <g id="页面-1" stroke="none" stroke-width="1" fill="none" fill-rule="evenodd">
        <g id="stripe-svgrepo-com">
            <rect id="矩形" fill="url(#linearGradient-xsqoxvfj_w-1)" fill-rule="nonzero" x="0" y="0" width="788.571429" height="537.142857" rx="62.8571429"></rect>
            <path d="M424.124571,180.386286 L383.485714,189.108571 L383.485714,156.16 L424.124571,147.6 L424.124571,180.386286 Z M508.636571,198.637714 C492.769143,198.637714 482.569143,206.066286 476.902857,211.235429 L474.797714,201.221714 L439.178286,201.221714 L439.178286,389.541714 L479.654857,380.981714 L479.817143,335.274286 C485.645714,339.473143 494.226286,345.449143 508.474286,345.449143 C537.454857,345.449143 563.845714,322.192 563.845714,270.993143 C563.683429,224.155429 536.969143,198.637714 508.636571,198.637714 Z M498.921143,309.916571 C489.369143,309.916571 483.701714,306.525714 479.816,302.325714 L479.654857,242.405714 C483.864,237.722286 489.692571,234.492571 498.921143,234.492571 C513.654857,234.492571 523.854857,250.965714 523.854857,272.123429 C523.854857,293.765714 513.816,309.916571 498.921143,309.916571 Z M691.428571,272.608 C691.428571,231.261714 671.352,198.637714 632.980571,198.637714 C594.448,198.637714 571.133714,231.261714 571.133714,272.285714 C571.133714,320.899429 598.657143,345.449143 638.162286,345.449143 C657.428571,345.449143 672,341.088 683.009143,334.950857 L683.009143,302.649143 C672,308.140571 659.371429,311.532571 643.342857,311.532571 C627.637714,311.532571 613.714286,306.041143 611.933714,286.982857 L691.105143,286.982857 C691.105143,286.093714 691.163429,284.074286 691.229714,281.746286 L691.229714,281.744 L691.229714,281.742857 L691.229714,281.741714 L691.229714,281.740571 L691.229714,281.740571 C691.321143,278.574857 691.428571,274.841143 691.428571,272.608 Z M611.446857,257.265143 C611.446857,239.014857 622.618286,231.424 632.818286,231.424 C642.694857,231.424 653.218286,239.014857 653.218286,257.265143 L611.446857,257.265143 Z M383.483429,201.382857 L424.122286,201.382857 L424.122286,342.704 L383.483429,342.704 L383.483429,201.382857 Z M337.344,201.382857 L339.934857,213.334857 C349.486857,195.891429 368.429714,199.444571 373.610286,201.382857 L373.610286,238.530286 C368.592,236.753143 352.401143,234.492571 342.849143,246.929143 L342.849143,342.704 L302.372571,342.704 L302.372571,201.382857 L337.344,201.382857 Z M258.979429,166.334857 L219.474286,174.733714 L219.313143,304.102857 C219.313143,328.005714 237.284571,345.610286 261.245714,345.610286 C274.522286,345.610286 284.236571,343.188571 289.579429,340.281143 L289.579429,307.494857 C284.398857,309.594286 258.817143,317.024 258.817143,293.12 L258.817143,235.784 L289.579429,235.784 L289.579429,201.382857 L258.817143,201.382857 L258.979429,166.334857 Z M163.296,233.685714 C154.714286,233.685714 149.533714,236.107429 149.533714,242.406857 C149.533714,249.284571 158.450286,252.309714 169.512,256.062857 C187.545143,262.181714 211.281143,270.234286 211.381714,300.065143 C211.381714,328.976 188.228571,345.611429 154.553143,345.611429 C140.628571,345.611429 125.409143,342.865143 110.352,336.405714 L110.352,297.965714 C123.952,305.395429 141.114286,310.886857 154.553143,310.886857 C163.619429,310.886857 170.096,308.464 170.096,301.034286 C170.096,293.417143 160.429714,289.934857 148.761143,285.731429 C130.989714,279.329143 108.571429,271.252571 108.571429,244.345143 C108.571429,215.757714 130.428571,198.637714 163.296,198.637714 C176.733714,198.637714 190.010286,200.737143 203.448,206.067429 L203.448,244.021714 C191.142857,237.4 175.6,233.685714 163.296,233.685714 Z" id="形状" fill="#6461FC"></path>
        </g>
    </g>
</svg>